<svg id="Capa_1" data-name="Capa 1" xmlns="http://www.w3.org/2000/svg" viewBox="0 0 492 491.9"><defs><style>.cls-1{fill:#fff;}</style></defs><g id="Symbol"><path class="cls-1" d="M96.1,23.2A120.63,120.63,0,0,0,52.5,51.6,120.27,120.27,0,0,0,24.1,95.1c-6.1,15.6-10.2,33.5-11.4,59.7s-1.5,34.6-1.5,101.4.3,75.2,1.5,101.4,5.4,44.1,11.4,59.7a120.63,120.63,0,0,0,28.4,43.6,120.63,120.63,0,0,0,43.6,28.4c15.6,6.1,33.5,10.2,59.7,11.4s34.6,1.5,101.4,1.5,75.2-.3,101.4-1.5,44.1-5.4,59.7-11.4a126,126,0,0,0,72-72c6.1-15.6,10.2-33.5,11.4-59.7s1.5-34.6,1.5-101.4-.3-75.2-1.5-101.4-5.4-44.1-11.4-59.7A121.29,121.29,0,0,0,462,51.6a120.63,120.63,0,0,0-43.6-28.4c-15.6-6.1-33.5-10.2-59.7-11.4s-34.6-1.5-101.4-1.5-75.2.3-101.4,1.5S111.7,17.1,96.1,23.2ZM356.6,56c24,1.1,37,5.1,45.7,8.5a76.63,76.63,0,0,1,28.3,18.4A76.63,76.63,0,0,1,449,111.2c3.4,8.7,7.4,21.7,8.5,45.7,1.2,25.9,1.4,33.7,1.4,99.4s-.3,73.5-1.4,99.4c-1.1,24-5.1,37-8.5,45.7a81.39,81.39,0,0,1-46.7,46.7c-8.7,3.4-21.7,7.4-45.7,8.5-25.9,1.2-33.7,1.4-99.4,1.4s-73.5-.3-99.4-1.4c-24-1.1-37-5.1-45.7-8.5a76.63,76.63,0,0,1-28.3-18.4,76.63,76.63,0,0,1-18.4-28.3c-3.4-8.7-7.4-21.7-8.5-45.7-1.2-25.9-1.4-33.7-1.4-99.4s.3-73.5,1.4-99.4c1.1-24,5.1-37,8.5-45.7A76.63,76.63,0,0,1,83.8,82.9a76.63,76.63,0,0,1,28.3-18.4c8.7-3.4,21.7-7.4,45.7-8.5,25.9-1.2,33.7-1.4,99.4-1.4S330.7,54.8,356.6,56Z" transform="translate(-11.2 -10.3)"/><path class="cls-1" d="M130.9,256.3A126.3,126.3,0,1,0,257.2,130,126.3,126.3,0,0,0,130.9,256.3Zm208.3,0a82,82,0,1,1-82-82A82,82,0,0,1,339.2,256.3Z" transform="translate(-11.2 -10.3)"/><circle class="cls-1" cx="377.4" cy="114.7" r="29.5"/></g></svg>