<svg id="Capa_1" data-name="Capa 1" xmlns="http://www.w3.org/2000/svg" viewBox="0 0 683.46 124.93"><defs><style>.cls-1{fill:#fdfdfd;}</style></defs><path class="cls-1" d="M146.81,353.79c-2.44-11-14.27-15.66-24.88-15.48-8.18.17-17.23,3-22.1,9.22a15.92,15.92,0,0,0-3,11.31c.87,12.53,14.62,14.09,27.67,15.31,16.7,2.09,37.41,6.44,42.11,25.93a43.37,43.37,0,0,1,.87,8c0,23.49-23.32,37.06-45.24,37.06-18.8,0-41.59-11.14-43.85-32.88L78.26,409,96,408.6l.18,2.61v-.69c1.21,11.31,15,17.22,26.27,17.22,13,0,27.32-7.31,27.32-19.83a20.06,20.06,0,0,0-.52-4.18c-2.09-9.22-14.62-10.79-26.8-12-19-1.91-41.24-6.09-43.15-31.49v.17a32.93,32.93,0,0,1,6.61-23.14c8.18-10.61,22.8-16.18,36.89-16.18,18.79,0,38.28,9.75,41.41,32Z" transform="translate(-78.26 -320.73)"/><path class="cls-1" d="M242,408.25H198.31c-4.69,11.14-10.78,25.75-14.61,35.85h-19l48.89-123.37H226.5L275.39,444.1H256.6Zm-37.06-16.53H235.2l-15-43Z" transform="translate(-78.26 -320.73)"/><path class="cls-1" d="M294.19,444.1H276.61V322.47h72.56v17.58h-55v34.27h48.72v17.75H294.19Z" transform="translate(-78.26 -320.73)"/><path class="cls-1" d="M372.49,426.52H429V444.1H354.74V322.47h74.12v17.58H372.49v34.27h55.15v17.75H372.49Z" transform="translate(-78.26 -320.73)"/><path class="cls-1" d="M487.5,322.47c15.31,0,25,8.7,29.58,20,4.87,12,3.3,25.93-8.88,34.63,13.92,5.91,19,18.79,19,30.27,0,18.27-12,36.72-35.32,36.72h-55V322.47Zm-33.24,48.37h32.89c19.14,0,19.49-31.66.35-31.66H454.26Zm0,56.2h37.59c11.83,0,17.74-9.91,17.74-19.48s-5.91-19.32-17.74-19.32H454.26Z" transform="translate(-78.26 -320.73)"/><path class="cls-1" d="M551,339.18a61.52,61.52,0,0,1,87.86,0,62.58,62.58,0,0,1,0,88,61.55,61.55,0,0,1-87.86,0,62.58,62.58,0,0,1,0-88Zm75.34,12.52a44.84,44.84,0,0,0-31.5-13.22,43.7,43.7,0,0,0-31.14,13.22,44.53,44.53,0,0,0,0,63,43.67,43.67,0,0,0,31.14,13.23,44.8,44.8,0,0,0,31.5-76.22Z" transform="translate(-78.26 -320.73)"/><path class="cls-1" d="M674,322.47l33.06,45.59,33.24-45.59h21.4l-44,61.08c13,17.92,32.36,44.37,44,60.55h-21.4l-33.24-45.59L674,444.1H652.45l44-60.55c-13.05-17.93-32.88-45.59-44-61.08Z" transform="translate(-78.26 -320.73)"/></svg>