<svg id="Capa_1" data-name="Capa 1" xmlns="http://www.w3.org/2000/svg" viewBox="0 0 683.46 188.83"><defs><style>.cls-1{fill:#fff;}</style></defs><path class="cls-1" d="M146.81,353.79c-2.44-11-14.27-15.66-24.88-15.48-8.18.17-17.23,3-22.1,9.22a15.92,15.92,0,0,0-3,11.31c.87,12.53,14.62,14.09,27.67,15.31,16.7,2.09,37.41,6.44,42.11,25.93a43.37,43.37,0,0,1,.87,8c0,23.49-23.32,37.06-45.24,37.06-18.8,0-41.59-11.14-43.85-32.88L78.26,409,96,408.6l.18,2.61v-.69c1.21,11.31,15,17.22,26.27,17.22,13,0,27.32-7.31,27.32-19.83a20.06,20.06,0,0,0-.52-4.18c-2.09-9.22-14.62-10.79-26.8-12-19-1.91-41.24-6.09-43.15-31.49v.17a32.93,32.93,0,0,1,6.61-23.14c8.18-10.61,22.8-16.18,36.89-16.18,18.79,0,38.28,9.75,41.41,32Z" transform="translate(-78.26 -320.73)"/><path class="cls-1" d="M242,408.25H198.31c-4.69,11.14-10.78,25.75-14.61,35.85h-19l48.89-123.37H226.5L275.39,444.1H256.6Zm-37.06-16.53H235.2l-15-43Z" transform="translate(-78.26 -320.73)"/><path class="cls-1" d="M294.19,444.1H276.61V322.47h72.56v17.58h-55v34.27h48.72v17.75H294.19Z" transform="translate(-78.26 -320.73)"/><path class="cls-1" d="M372.49,426.52H429V444.1H354.74V322.47h74.12v17.58H372.49v34.27h55.15v17.75H372.49Z" transform="translate(-78.26 -320.73)"/><path class="cls-1" d="M487.5,322.47c15.31,0,25,8.7,29.58,20,4.87,12,3.3,25.93-8.88,34.63,13.92,5.91,19,18.79,19,30.27,0,18.27-12,36.72-35.32,36.72h-55V322.47Zm-33.24,48.37h32.89c19.14,0,19.49-31.66.35-31.66H454.26Zm0,56.2h37.59c11.83,0,17.74-9.91,17.74-19.48s-5.91-19.32-17.74-19.32H454.26Z" transform="translate(-78.26 -320.73)"/><path class="cls-1" d="M551,339.18a61.52,61.52,0,0,1,87.86,0,62.58,62.58,0,0,1,0,88,61.55,61.55,0,0,1-87.86,0,62.58,62.58,0,0,1,0-88Zm75.34,12.52a44.84,44.84,0,0,0-31.5-13.22,43.7,43.7,0,0,0-31.14,13.22,44.53,44.53,0,0,0,0,63,43.67,43.67,0,0,0,31.14,13.23,44.8,44.8,0,0,0,31.5-76.22Z" transform="translate(-78.26 -320.73)"/><path class="cls-1" d="M674,322.47l33.06,45.59,33.24-45.59h21.4l-44,61.08c13,17.92,32.36,44.37,44,60.55h-21.4l-33.24-45.59L674,444.1H652.45l44-60.55c-13.05-17.93-32.88-45.59-44-61.08Z" transform="translate(-78.26 -320.73)"/><path class="cls-1" d="M297.76,498.82a6,6,0,0,1,1.39,4.09,5.6,5.6,0,0,1-2.28,4.8q-2.28,1.68-6.75,1.68H279.2v-24.5h10.22a10.38,10.38,0,0,1,6.21,1.62,5.43,5.43,0,0,1,2.22,4.64,5.68,5.68,0,0,1-1.1,3.54,6.14,6.14,0,0,1-3,2.06A6.79,6.79,0,0,1,297.76,498.82ZM281,486.43v9.76h8.37A8.42,8.42,0,0,0,294.3,495a4.69,4.69,0,0,0,0-7.28,8.42,8.42,0,0,0-4.95-1.24Zm14.54,20.17a4.28,4.28,0,0,0,1.84-3.83,4.23,4.23,0,0,0-1.84-3.81,9.72,9.72,0,0,0-5.4-1.23H281v10.12h9.14A9.62,9.62,0,0,0,295.52,506.6Z" transform="translate(-78.26 -320.73)"/><path class="cls-1" d="M334.78,502.49H320.57l-3.12,6.9h-1.92l11.27-24.5h1.78l11.27,24.5h-1.92Zm-.67-1.5-6.44-14.14L321.27,501Z" transform="translate(-78.26 -320.73)"/><path class="cls-1" d="M360.24,506.87c-1.72-1.8-2.58-4.42-2.58-7.88v-14.1h1.79v14q0,4.51,2.07,6.76a9.06,9.06,0,0,0,11.93,0q2.07-2.25,2.07-6.76v-14h1.78V499c0,3.46-.86,6.08-2.59,7.88a11.07,11.07,0,0,1-14.47,0Z" transform="translate(-78.26 -320.73)"/><path class="cls-1" d="M399.73,484.89h1.79v22.89h14.1v1.61H399.73Z" transform="translate(-78.26 -320.73)"/><path class="cls-1" d="M451.22,507.78v1.61H434.31v-24.5h16.38v1.61H436.1v9.66h13v1.57h-13v10Z" transform="translate(-78.26 -320.73)"/><path class="cls-1" d="M488.84,509.39,483,501.2a19,19,0,0,1-2.38.17h-7v8h-1.79v-24.5h8.79a11,11,0,0,1,7.24,2.18,7.49,7.49,0,0,1,2.63,6.08A7.91,7.91,0,0,1,489,498a7.83,7.83,0,0,1-4.25,2.78l6.12,8.58Zm-8.22-9.59a9,9,0,0,0,6-1.74,6.87,6.87,0,0,0,0-9.83,9,9,0,0,0-6-1.73h-7v13.3Z" transform="translate(-78.26 -320.73)"/><path class="cls-1" d="M526.29,502.49H512.08l-3.11,6.9H507l11.27-24.5h1.79l11.27,24.5h-1.93Zm-.66-1.5-6.44-14.14L512.78,501Z" transform="translate(-78.26 -320.73)"/><path class="cls-1" d="M551.23,508.63a9.8,9.8,0,0,1-3.8-2.39l.81-1.33a9.4,9.4,0,0,0,3.48,2.22,12.53,12.53,0,0,0,4.6.86,8.83,8.83,0,0,0,5.29-1.33,4.13,4.13,0,0,0,1.78-3.47,3.61,3.61,0,0,0-.94-2.62,6.15,6.15,0,0,0-2.35-1.51,31.34,31.34,0,0,0-3.78-1.08,38.75,38.75,0,0,1-4.32-1.3,6.9,6.9,0,0,1-2.76-1.94,5.19,5.19,0,0,1-1.14-3.52A6,6,0,0,1,549,488a6.44,6.44,0,0,1,2.89-2.36,11.71,11.71,0,0,1,4.85-.88,13.59,13.59,0,0,1,4,.6,11.45,11.45,0,0,1,3.39,1.61l-.66,1.43a11.25,11.25,0,0,0-3.24-1.54,12.19,12.19,0,0,0-3.48-.52,8.26,8.26,0,0,0-5.15,1.36,4.3,4.3,0,0,0-1.75,3.54,3.62,3.62,0,0,0,1,2.62,6.31,6.31,0,0,0,2.34,1.51,37,37,0,0,0,3.82,1.12,35.34,35.34,0,0,1,4.3,1.29,7.08,7.08,0,0,1,2.75,1.91,5,5,0,0,1,1.14,3.45,5.81,5.81,0,0,1-1,3.25,6.65,6.65,0,0,1-3,2.35,12.27,12.27,0,0,1-4.9.87A14.23,14.23,0,0,1,551.23,508.63Z" transform="translate(-78.26 -320.73)"/></svg>